<?xml version="1.0" encoding="iso-8859-1"?>
<!-- Generator: Adobe Illustrator 19.0.0, SVG Export Plug-In . SVG Version: 6.00 Build 0)  -->
<svg xmlns="http://www.w3.org/2000/svg" xmlns:xlink="http://www.w3.org/1999/xlink" version="1.1" id="Layer_1" x="0px" y="0px" viewBox="0 0 511.999 511.999" style="enable-background:new 0 0 511.999 511.999;" xml:space="preserve">
<g>
	<polygon style="fill:#36C8E3;" points="239.421,410.598 166.374,444.818 166.374,483.359 239.421,461.928  "/>
	<polygon style="fill:#36C8E3;" points="272.396,410.598 345.443,444.818 345.443,483.359 272.396,461.928  "/>
</g>
<g>
	<polygon style="fill:#2A8CBD;" points="312.245,429.266 272.396,410.598 272.396,461.928 305.653,471.686  "/>
	<polygon style="fill:#2A8CBD;" points="187.272,435.028 166.374,444.818 166.374,483.359 187.272,477.229  "/>
</g>
<polygon style="fill:#FF5948;" points="279.702,179.534 478.924,272.866 478.924,331.316 279.702,272.866 "/>
<polygon style="fill:#D44A3C;" points="315.79,196.441 279.702,179.534 279.702,272.866 315.79,283.454 "/>
<polygon style="fill:#FF5948;" points="232.297,179.534 33.075,272.866 33.075,331.316 232.297,272.866 "/>
<polygon style="fill:#D44A3C;" points="53.973,263.075 33.075,272.866 33.075,331.316 53.973,325.185 "/>
<path style="fill:#E9F2FF;" d="M216.926,58.433v328.876l12.215,92.854c1.698,12.908,12.149,23.183,25.145,23.951  c14.21,0.84,26.482-9.433,28.314-23.362l12.292-93.443V58.433c0-21.53-17.453-50.596-38.983-50.596l0,0  C234.378,7.837,216.926,36.904,216.926,58.433z"/>
<path style="fill:#B9D7FF;" d="M250.038,480.164l-12.215-92.854V58.433c0-17.909,12.081-41.016,28.534-48.288  c-3.327-1.47-6.828-2.308-10.449-2.308l0,0c-21.53,0-38.983,29.067-38.983,50.596v328.876l12.215,92.854  c1.698,12.908,12.149,23.183,25.145,23.951c4.301,0.254,8.421-0.515,12.131-2.09C257.71,498.286,251.331,489.995,250.038,480.164z"/>
<path style="fill:#FFD359;" d="M193.938,405.183L193.938,405.183c-12.695,0-22.988-10.292-22.988-22.988v-49.221  c0-2.308,1.871-4.18,4.18-4.18h37.616c2.308,0,4.18,1.871,4.18,4.18v49.221C216.926,394.891,206.633,405.183,193.938,405.183z"/>
<path style="fill:#DB9840;" d="M191.848,382.194v-49.221c0-2.308,1.871-4.18,4.18-4.18H175.13c-2.308,0-4.18,1.871-4.18,4.18v49.221  c0,12.695,10.292,22.988,22.988,22.988l0,0c3.764,0,7.313-0.91,10.449-2.514C196.945,398.864,191.848,391.127,191.848,382.194z"/>
<path style="fill:#36C8E3;" d="M276.11,66.355v14.408c0,1.441-1.423,2.449-2.783,1.972L256.6,76.863  c-0.448-0.158-0.936-0.158-1.384,0l-16.727,5.872c-1.359,0.478-2.783-0.532-2.783-1.972V66.355c0-0.775,0.429-1.488,1.116-1.849  l18.111-9.539c0.609-0.321,1.339-0.321,1.948,0l18.111,9.539C275.68,64.868,276.11,65.58,276.11,66.355z"/>
<g>
	<path style="fill:#FFD359;" d="M216.926,351.086H170.95v-18.111c0-2.308,1.871-4.18,4.18-4.18h37.616c2.308,0,4.18,1.871,4.18,4.18   V351.086z"/>
	<path style="fill:#FFD359;" d="M317.879,405.183L317.879,405.183c-12.695,0-22.988-10.292-22.988-22.988v-49.221   c0-2.308,1.871-4.18,4.18-4.18h37.616c2.308,0,4.18,1.871,4.18,4.18v49.221C340.867,394.891,330.576,405.183,317.879,405.183z"/>
</g>
<path style="fill:#DB9840;" d="M315.79,382.194v-49.221c0-2.308,1.871-4.18,4.18-4.18h-20.898c-2.308,0-4.18,1.871-4.18,4.18v49.221  c0,12.695,10.292,22.988,22.988,22.988c3.764,0,7.313-0.91,10.449-2.514C320.888,398.864,315.79,391.127,315.79,382.194z"/>
<path style="fill:#FFD359;" d="M340.867,351.086h-45.976v-18.111c0-2.308,1.871-4.18,4.18-4.18h37.616c2.308,0,4.18,1.871,4.18,4.18  V351.086z"/>
<path d="M486.922,306.885v-34.021c0-3.041-1.76-5.808-4.515-7.097l-179.646-84.101v-34.336c0-4.329-3.511-7.837-7.842-7.837  c-4.331,0-7.842,3.508-7.842,7.837v100.202c-0.001,0.039,0,0.076,0,0.115v29.747c0,0.031-0.001,0.063,0,0.094v55.487v18.11v31.109  v4.602l-4.116,31.271c-0.004,0.03-0.008,0.06-0.011,0.09l-8.105,61.573c-0.884,6.715-5.256,12.214-11.093,14.87v-84.002  c0-4.329-3.511-7.837-7.842-7.837s-7.842,3.508-7.842,7.837v83.996c-5.895-2.74-10.254-8.492-11.169-15.453l-12.156-92.345V58.433  c0-22.023,17.558-42.759,31.167-42.759c13.609,0,31.167,20.736,31.167,42.759v46.579c0,4.329,3.511,7.837,7.842,7.837  c4.331,0,7.842-3.508,7.842-7.837V58.433c0-12.366-4.811-26.536-12.868-37.902C280.505,7.292,268.437,0,255.909,0  s-24.597,7.292-33.983,20.53c-8.057,11.366-12.868,25.535-12.868,37.902v123.326l-52.006,24.346  c-3.923,1.837-5.612,6.502-3.774,10.422c1.333,2.845,4.158,4.514,7.106,4.514c1.114,0,2.245-0.239,3.322-0.742l45.352-21.231v42.935  L40.761,296.102v-18.255l79.144-37.048c3.923-1.836,5.612-6.502,3.775-10.422c-1.837-3.919-6.506-5.605-10.428-3.772l-83.659,39.162  c-2.756,1.291-4.516,4.057-4.516,7.098v34.021c0,0.024,0,0.048,0,0.072v24.359c0,2.468,1.164,4.793,3.142,6.274  c1.372,1.026,3.025,1.563,4.701,1.563c0.739,0,1.482-0.104,2.207-0.318l173.931-50.993v33.115h-36.073  c-6.631,0-12.025,5.391-12.025,12.016v18.112v31.109c0,16.997,13.837,30.824,30.845,30.824c7.455,0,14.299-2.657,19.638-7.073  l1.126,8.558l-49.578,23.211c-2.755,1.29-4.515,4.056-4.515,7.097v38.546c0,2.468,1.164,4.793,3.142,6.274  c1.372,1.026,3.025,1.563,4.701,1.563c0.739,0,1.482-0.104,2.207-0.318l52.087-15.27l0.735,5.579  c2.217,16.837,15.874,29.77,32.475,30.752c0.688,0.04,1.371,0.061,2.052,0.061c17.284,0,32.24-12.92,34.519-30.224l0.812-6.168  l52.09,15.271c0.725,0.213,1.468,0.318,2.207,0.318c1.676,0,3.328-0.537,4.701-1.563c1.978-1.481,3.142-3.806,3.142-6.274v-38.546  c0-3.041-1.761-5.808-4.516-7.097l-49.581-23.209l0.937-7.117c5.022,3.54,11.138,5.629,17.737,5.629  c17.009,0,30.845-13.828,30.845-30.824v-31.109v-18.111c0-6.626-5.394-12.016-12.025-12.016h-33.982v-33.166l54.536,15.987  c0.738,0.216,1.48,0.32,2.211,0.32c3.391,0,6.518-2.216,7.521-5.633c1.219-4.153-1.162-8.509-5.317-9.726l-58.952-17.282v-13.055  l168.477,54.161v8.285l-64.921-19.03c-4.153-1.213-8.513,1.162-9.732,5.314c-1.219,4.155,1.162,8.509,5.317,9.727l74.97,21.974  c0.725,0.212,1.468,0.317,2.207,0.317c1.676,0,3.329-0.537,4.701-1.564c1.977-1.48,3.141-3.804,3.141-6.273v-24.359  C486.922,306.935,486.922,306.911,486.922,306.885z M40.761,320.851v-8.284l168.295-54.101v13.043L40.761,320.851z M176.643,336.632  h30.323v6.617h-30.323V336.632z M191.804,397.346c-8.36,0-15.161-6.797-15.161-15.151v-23.273h30.323v23.272  C206.966,390.549,200.164,397.346,191.804,397.346z M174.16,472.894v-23.096l40.556-18.987l3.827,29.073L174.16,472.894z   M337.661,449.797v23.096l-44.386-13.012l3.826-29.07L337.661,449.797z M317.921,397.346c-8.36,0-15.161-6.797-15.161-15.151  v-23.273h30.323v23.272C333.083,390.549,326.281,397.346,317.921,397.346z M333.083,336.632v6.617H302.76v-6.617H333.083z   M302.761,241.941v-42.964l168.477,78.871v18.255L302.761,241.941z"/>
<path d="M248.067,125.388v241.601c0,4.329,3.511,7.837,7.842,7.837s7.842-3.508,7.842-7.837V125.388  c0-4.329-3.511-7.837-7.842-7.837S248.067,121.06,248.067,125.388z"/>
<path d="M274.027,90.689c2.034,0,4.052-0.624,5.751-1.828c2.623-1.859,4.188-4.886,4.188-8.098V66.355  c0-3.693-2.031-7.057-5.305-8.782l-18.121-9.537c-2.9-1.529-6.363-1.529-9.261-0.001l-18.13,9.541  c-3.268,1.724-5.299,5.088-5.299,8.779v14.408c0,3.212,1.566,6.24,4.188,8.098c2.624,1.858,6.002,2.333,9.036,1.269l14.833-5.206  l14.836,5.207C271.813,90.505,272.923,90.689,274.027,90.689z M268.282,72.655l-9.084-3.188c-2.119-0.743-4.454-0.744-6.58,0.001  l-9.082,3.187v-2.831l12.374-6.512l12.374,6.512v2.831H268.282z"/>
<g>
</g>
<g>
</g>
<g>
</g>
<g>
</g>
<g>
</g>
<g>
</g>
<g>
</g>
<g>
</g>
<g>
</g>
<g>
</g>
<g>
</g>
<g>
</g>
<g>
</g>
<g>
</g>
<g>
</g>
</svg>
