<?xml version="1.0" encoding="iso-8859-1"?>
<!-- Generator: Adobe Illustrator 19.0.0, SVG Export Plug-In . SVG Version: 6.00 Build 0)  -->
<svg version="1.1" id="Layer_1" xmlns="http://www.w3.org/2000/svg" xmlns:xlink="http://www.w3.org/1999/xlink" x="0px" y="0px"
	 viewBox="0 0 512 512" style="enable-background:new 0 0 512 512;" xml:space="preserve">
<path style="fill:#333E48;" d="M394.681,36.691c-3.976-7.776-14.372-14.136-23.104-14.136H140.423
	c-8.732,0-19.129,6.361-23.104,14.136l-47.931,93.762c-3.975,7.776-0.083,14.137,8.65,14.137h355.924
	c8.732,0,12.626-6.362,8.651-14.137L394.681,36.691z"/>
<path style="opacity:0.1;enable-background:new    ;" d="M96.34,77.73h111.071V61.853H104.457L96.34,77.73z M407.543,61.853H304.589
	V77.73h111.07L407.543,61.853z"/>
<rect x="59.571" y="132.659" style="fill:#00B3E3;" width="392.853" height="344.862"/>
<rect x="396.579" y="181.518" style="opacity:0.1;enable-background:new    ;" width="55.857" height="26.88"/>
<rect x="320.157" y="303.507" style="opacity:0.1;enable-background:new    ;" width="55.857" height="26.88"/>
<rect x="251.218" y="181.094" style="opacity:0.1;enable-background:new    ;" width="55.858" height="26.88"/>
<rect x="59.571" y="246.677" style="opacity:0.1;enable-background:new    ;" width="55.857" height="26.88"/>
<rect x="103.445" y="156.771" style="opacity:0.1;enable-background:new    ;" width="55.858" height="26.88"/>
<rect x="186.006" y="342.3" style="opacity:0.1;enable-background:new    ;" width="55.858" height="26.88"/>
<rect x="87.504" y="415.292" style="opacity:0.1;enable-background:new    ;" width="55.857" height="26.88"/>
<rect x="396.568" y="413.779" style="opacity:0.1;enable-background:new    ;" width="55.857" height="26.88"/>
<rect x="199.374" y="355.743" style="fill:#FFFFFF;" width="113.246" height="121.778"/>
<rect x="248.064" y="355.743" style="opacity:0.2;enable-background:new    ;" width="15.877" height="109.848"/>
<rect x="94.183" y="207.884" style="fill:#FFFFFF;" width="68.651" height="77.586"/>
<rect x="94.183" y="207.884" style="opacity:0.2;enable-background:new    ;" width="68.651" height="17.105"/>
<rect x="221.676" y="207.884" style="fill:#FFFFFF;" width="68.649" height="77.586"/>
<rect x="221.676" y="207.884" style="opacity:0.2;enable-background:new    ;" width="68.649" height="17.105"/>
<rect x="349.17" y="207.884" style="fill:#FFFFFF;" width="68.651" height="77.586"/>
<rect x="349.17" y="207.884" style="opacity:0.2;enable-background:new    ;" width="68.651" height="17.105"/>
<rect x="94.183" y="316.95" style="fill:#FFFFFF;" width="68.651" height="77.586"/>
<rect x="94.183" y="316.95" style="opacity:0.2;enable-background:new    ;" width="68.651" height="17.105"/>
<rect x="349.17" y="316.95" style="fill:#FFFFFF;" width="68.651" height="77.586"/>
<rect x="349.17" y="316.95" style="opacity:0.2;enable-background:new    ;" width="68.651" height="17.105"/>
<path style="fill:#0071CE;" d="M467.442,133.302c0-5.822-4.763-10.585-10.585-10.585H55.142c-5.822,0-10.585,4.763-10.585,10.585
	v12.885c0,5.822,4.763,10.585,10.585,10.585h401.715c5.822,0,10.585-4.763,10.585-10.585L467.442,133.302L467.442,133.302z"/>
<path style="fill:#333E48;" d="M504.061,485.17c0,2.351-1.922,4.275-4.275,4.275H12.214c-2.352,0-4.275-1.924-4.275-4.275v-15.302
	c0-2.353,1.923-4.277,4.275-4.277h487.573c2.353,0,4.275,1.924,4.275,4.277V485.17z"/>
<rect x="165.736" y="465.591" style="fill:#A4A9AD;" width="180.533" height="23.853"/>
<g>
	<rect x="238.009" y="64.715" style="fill:#FFFFFF;" width="35.988" height="15.877"/>
	<path style="fill:#FFFFFF;" d="M238.005,105.737c-4.384,0-7.939-3.553-7.939-7.939V47.513c0-4.385,3.554-7.939,7.939-7.939
		s7.939,3.553,7.939,7.939v50.286C245.944,102.183,242.39,105.737,238.005,105.737z"/>
	<path style="fill:#FFFFFF;" d="M273.994,105.737c-4.385,0-7.939-3.553-7.939-7.939V47.513c0-4.385,3.553-7.939,7.939-7.939
		c4.385,0,7.939,3.553,7.939,7.939v50.286C281.932,102.183,278.379,105.737,273.994,105.737z"/>
</g>
<path style="fill:#1E252B;" d="M499.786,457.652h-39.422V164.366c8.541-1.645,15.018-9.165,15.018-18.18v-12.885
	c0-10.213-8.31-18.523-18.523-18.523h-13.342l-41.767-81.7c-5.293-10.352-18.547-18.461-30.173-18.461H140.423
	c-11.626,0-24.879,8.109-30.173,18.461l-41.765,81.702H55.142c-10.213,0-18.523,8.31-18.523,18.523v12.885
	c0,9.014,6.475,16.534,15.016,18.18v293.285H12.214C5.479,457.652,0,463.132,0,469.867v15.302c0,6.734,5.479,12.214,12.214,12.214
	h487.573c6.734,0,12.214-5.48,12.214-12.214v-15.302C512,463.132,506.52,457.652,499.786,457.652z M124.387,40.305
	c2.625-5.136,10.268-9.812,16.036-9.812h231.154c5.767,0,13.411,4.676,16.036,9.812l38.071,74.473H86.316L124.387,40.305z
	 M52.496,133.302c0-1.434,1.212-2.646,2.646-2.646h401.715c1.434,0,2.646,1.212,2.646,2.646v12.885c0,1.434-1.212,2.646-2.646,2.646
	H55.142c-1.434,0-2.646-1.212-2.646-2.646V133.302z M312.623,347.806H199.376c-4.384,0-7.939,3.553-7.939,7.939v101.907H67.511
	V164.709h376.976v292.942H320.56V355.745C320.561,351.36,317.007,347.806,312.623,347.806z M304.684,363.683v93.968h-97.369v-93.968
	H304.684z M157.793,481.506H15.877v-7.978h141.916V481.506z M338.332,481.506H173.67v-7.978h164.662V481.506z M496.123,481.506
	H354.209v-7.978h141.914V481.506z M162.834,199.943H94.183c-4.384,0-7.939,3.553-7.939,7.939v77.588
	c0,4.385,3.554,7.939,7.939,7.939h68.651c4.384,0,7.939-3.553,7.939-7.939v-77.588C170.772,203.497,167.218,199.943,162.834,199.943
	z M154.895,277.531h-52.773v-22.916h52.773L154.895,277.531L154.895,277.531z M154.895,238.738h-52.773v-22.917h52.773
	L154.895,238.738L154.895,238.738z M290.325,199.943h-68.651c-4.384,0-7.939,3.553-7.939,7.939v77.588
	c0,4.385,3.554,7.939,7.939,7.939h68.651c4.385,0,7.939-3.553,7.939-7.939v-77.588C298.263,203.497,294.71,199.943,290.325,199.943z
	 M282.386,277.531h-52.773v-22.916h52.773V277.531z M282.386,238.738h-52.773v-22.917h52.773V238.738z M162.834,309.011H94.183
	c-4.384,0-7.939,3.553-7.939,7.939v77.588c0,4.384,3.554,7.939,7.939,7.939h68.651c4.384,0,7.939-3.554,7.939-7.939V316.95
	C170.772,312.565,167.218,309.011,162.834,309.011z M154.895,386.599h-52.773v-22.916h52.773L154.895,386.599L154.895,386.599z
	 M154.895,347.806h-52.773v-22.918h52.773L154.895,347.806L154.895,347.806z M349.166,402.476h68.649
	c4.385,0,7.939-3.554,7.939-7.939V316.95c0-4.385-3.553-7.939-7.939-7.939h-68.649c-4.385,0-7.939,3.553-7.939,7.939v77.588
	C341.228,398.923,344.781,402.476,349.166,402.476z M357.105,324.888h52.772v22.917h-52.772V324.888z M357.105,363.683h52.772
	v22.916h-52.772V363.683z M349.166,293.408h68.649c4.385,0,7.939-3.553,7.939-7.939v-77.588c0-4.385-3.553-7.939-7.939-7.939
	h-68.649c-4.385,0-7.939,3.553-7.939,7.939v77.588C341.228,289.855,344.781,293.408,349.166,293.408z M357.105,215.82h52.772v22.917
	h-52.772V215.82z M357.105,254.615h52.772v22.916h-52.772V254.615z"/>
<g>
</g>
<g>
</g>
<g>
</g>
<g>
</g>
<g>
</g>
<g>
</g>
<g>
</g>
<g>
</g>
<g>
</g>
<g>
</g>
<g>
</g>
<g>
</g>
<g>
</g>
<g>
</g>
<g>
</g>
</svg>
