<?xml version="1.0" encoding="iso-8859-1"?>
<!-- Generator: Adobe Illustrator 19.0.0, SVG Export Plug-In . SVG Version: 6.00 Build 0)  -->
<svg xmlns="http://www.w3.org/2000/svg" xmlns:xlink="http://www.w3.org/1999/xlink" version="1.1" id="Layer_1" x="0px" y="0px" viewBox="0 0 512 512" style="enable-background:new 0 0 512 512;" xml:space="preserve">
<path style="fill:#48449E;" d="M87.707,342.336v74.346c0,11.983,9.804,21.787,21.787,21.787h293.011  c11.983,0,21.787-9.804,21.787-21.787v-74.346H87.707z"/>
<rect x="218.83" y="342.332" style="fill:#1F1A78;" width="74.349" height="63.455"/>
<path style="fill:#48449E;" d="M315.914,54.491H185.191c-4.512,0-8.17-3.658-8.17-8.17s3.658-8.17,8.17-8.17h130.723  c4.513,0,8.17,3.658,8.17,8.17S320.427,54.491,315.914,54.491z"/>
<path style="fill:#DB412C;" d="M435.186,51.089c0-23.605-19.313-42.919-42.919-42.919H119.732  c-23.605,0-42.919,19.313-42.919,42.919V84.47l32.681,84.482l-32.681,84.482v99.794h358.373v-99.794l-32.681-84.482l32.681-84.482  V51.089z"/>
<g>
	<circle style="fill:#FFD83D;" cx="125.831" cy="304.204" r="16.34"/>
	<circle style="fill:#FFD83D;" cx="386.167" cy="304.204" r="16.34"/>
</g>
<rect x="76.81" y="84.469" style="fill:#495DD9;" width="171.019" height="168.96"/>
<rect x="264.17" y="84.469" style="fill:#48449E;" width="171.019" height="168.96"/>
<path d="M185.191,54.491h130.723c4.513,0,8.17-3.658,8.17-8.17s-3.657-8.17-8.17-8.17H185.191c-4.512,0-8.17,3.658-8.17,8.17  S180.679,54.491,185.191,54.491z"/>
<path d="M125.835,279.698c-13.516,0-24.511,10.995-24.511,24.511c0,13.516,10.995,24.511,24.511,24.511s24.511-10.995,24.511-24.511  C150.345,290.693,139.35,279.698,125.835,279.698z M125.835,312.379c-4.506,0-8.17-3.665-8.17-8.17s3.665-8.17,8.17-8.17  c4.506,0,8.17,3.665,8.17,8.17C134.005,308.713,130.34,312.379,125.835,312.379z"/>
<path d="M386.165,279.698c-13.515,0-24.511,10.995-24.511,24.511c0,13.516,10.996,24.511,24.511,24.511  c13.515,0,24.511-10.995,24.511-24.511C410.676,290.693,399.68,279.698,386.165,279.698z M386.165,312.379  c-4.506,0-8.17-3.665-8.17-8.17s3.665-8.17,8.17-8.17s8.17,3.665,8.17,8.17C394.335,308.713,390.669,312.379,386.165,312.379z"/>
<path d="M392.266,0H119.732C91.561,0,68.643,22.919,68.643,51.089v302.14c0,4.512,3.658,8.17,8.17,8.17h2.723v55.282  c0,16.519,13.438,29.957,29.957,29.957h12.956l-18.729,18.729c-0.003,0.003-0.005,0.005-0.009,0.009l-32.675,32.676  c-2.337,2.337-3.036,5.851-1.771,8.903C70.53,510.01,73.509,512,76.813,512h358.373c3.304,0,6.285-1.99,7.548-5.044  c1.265-3.053,0.566-6.567-1.77-8.903l-32.681-32.68l-0.001-0.001l-18.733-18.733h12.956c16.518,0,29.957-13.438,29.957-29.957V361.4  h2.723c4.513,0,8.17-3.658,8.17-8.17V51.089C443.356,22.919,420.438,0,392.266,0z M119.732,16.34h272.534  c19.161,0,34.748,15.589,34.748,34.748V76.3H84.984V51.089C84.984,31.929,100.572,16.34,119.732,16.34z M427.016,345.06H84.984  V92.641h162.845v152.624H109.494c-4.512,0-8.17,3.658-8.17,8.17s3.658,8.17,8.17,8.17h293.011c4.513,0,8.17-3.658,8.17-8.17  s-3.657-8.17-8.17-8.17H264.17V92.641h162.845V345.06H427.016z M226.996,361.4h58.006v36.218h-58.006L226.996,361.4L226.996,361.4z   M96.539,495.66l16.34-16.34h286.242l16.34,16.34H96.539z M382.78,462.979H129.219l16.339-16.339h220.88L382.78,462.979z   M416.122,416.682c0,7.509-6.108,13.617-13.617,13.617H142.178c-0.002,0-0.004,0-0.005,0h-32.678  c-7.509,0-13.617-6.108-13.617-13.617V361.4h114.778v44.388c0,4.512,3.658,8.17,8.17,8.17h74.347c4.513,0,8.17-3.658,8.17-8.17  V361.4h114.778V416.682z"/>
<g>
</g>
<g>
</g>
<g>
</g>
<g>
</g>
<g>
</g>
<g>
</g>
<g>
</g>
<g>
</g>
<g>
</g>
<g>
</g>
<g>
</g>
<g>
</g>
<g>
</g>
<g>
</g>
<g>
</g>
</svg>
